<svg width="350" height="24" viewBox="0 0 350 24" fill="none" xmlns="http://www.w3.org/2000/svg">
<rect x="0.5" y="0.5" width="349" height="23" rx="11.5" fill="#F6F6F6" stroke="#CFCFCF"/>
<rect width="210" height="24" rx="12" fill="#FF2040"/>
<path d="M118.47 18V6.8H123.686C124.987 6.8 126.001 7.05067 126.726 7.552C127.451 8.05333 127.814 8.768 127.814 9.696C127.814 10.6133 127.473 11.328 126.79 11.84C126.107 12.3413 125.201 12.592 124.07 12.592L124.374 11.92C125.633 11.92 126.609 12.1707 127.302 12.672C127.995 13.1733 128.342 13.8987 128.342 14.848C128.342 15.8293 127.969 16.6027 127.222 17.168C126.486 17.7227 125.409 18 123.99 18H118.47ZM121.046 16.08H123.894C124.491 16.08 124.945 15.9627 125.254 15.728C125.563 15.4933 125.718 15.1307 125.718 14.64C125.718 14.1707 125.563 13.824 125.254 13.6C124.945 13.3653 124.491 13.248 123.894 13.248H121.046V16.08ZM121.046 11.44H123.462C124.027 11.44 124.454 11.328 124.742 11.104C125.03 10.8693 125.174 10.528 125.174 10.08C125.174 9.632 125.03 9.296 124.742 9.072C124.454 8.83733 124.027 8.72 123.462 8.72H121.046V11.44ZM134.232 18.128C133.315 18.128 132.499 17.936 131.784 17.552C131.08 17.168 130.52 16.6453 130.104 15.984C129.699 15.312 129.496 14.5493 129.496 13.696C129.496 12.832 129.699 12.0693 130.104 11.408C130.52 10.736 131.08 10.2133 131.784 9.84C132.499 9.456 133.315 9.264 134.232 9.264C135.139 9.264 135.949 9.456 136.664 9.84C137.379 10.2133 137.939 10.7307 138.344 11.392C138.749 12.0533 138.952 12.8213 138.952 13.696C138.952 14.5493 138.749 15.312 138.344 15.984C137.939 16.6453 137.379 17.168 136.664 17.552C135.949 17.936 135.139 18.128 134.232 18.128ZM134.232 16.08C134.648 16.08 135.021 15.984 135.352 15.792C135.683 15.6 135.944 15.328 136.136 14.976C136.328 14.6133 136.424 14.1867 136.424 13.696C136.424 13.1947 136.328 12.768 136.136 12.416C135.944 12.064 135.683 11.792 135.352 11.6C135.021 11.408 134.648 11.312 134.232 11.312C133.816 11.312 133.443 11.408 133.112 11.6C132.781 11.792 132.515 12.064 132.312 12.416C132.12 12.768 132.024 13.1947 132.024 13.696C132.024 14.1867 132.12 14.6133 132.312 14.976C132.515 15.328 132.781 15.6 133.112 15.792C133.443 15.984 133.816 16.08 134.232 16.08ZM140.669 18V9.392H149.229V18H146.733V10.88L147.293 11.44H142.589L143.149 10.88V18H140.669ZM156.694 18.128C155.969 18.128 155.334 17.968 154.79 17.648C154.246 17.328 153.819 16.8427 153.51 16.192C153.211 15.5307 153.062 14.6987 153.062 13.696C153.062 12.6827 153.206 11.8507 153.494 11.2C153.782 10.5493 154.198 10.064 154.742 9.744C155.286 9.424 155.937 9.264 156.694 9.264C157.505 9.264 158.23 9.45067 158.87 9.824C159.521 10.1867 160.033 10.6987 160.406 11.36C160.79 12.0213 160.982 12.8 160.982 13.696C160.982 14.6027 160.79 15.3867 160.406 16.048C160.033 16.7093 159.521 17.2213 158.87 17.584C158.23 17.9467 157.505 18.128 156.694 18.128ZM151.606 21.104V9.392H153.99V11.152L153.942 13.712L154.102 16.256V21.104H151.606ZM156.262 16.08C156.678 16.08 157.046 15.984 157.366 15.792C157.697 15.6 157.958 15.328 158.15 14.976C158.353 14.6133 158.454 14.1867 158.454 13.696C158.454 13.1947 158.353 12.768 158.15 12.416C157.958 12.064 157.697 11.792 157.366 11.6C157.046 11.408 156.678 11.312 156.262 11.312C155.846 11.312 155.473 11.408 155.142 11.6C154.811 11.792 154.55 12.064 154.358 12.416C154.166 12.768 154.07 13.1947 154.07 13.696C154.07 14.1867 154.166 14.6133 154.358 14.976C154.55 15.328 154.811 15.6 155.142 15.792C155.473 15.984 155.846 16.08 156.262 16.08ZM166.763 18.128C165.846 18.128 165.03 17.936 164.315 17.552C163.611 17.168 163.051 16.6453 162.635 15.984C162.23 15.312 162.027 14.5493 162.027 13.696C162.027 12.832 162.23 12.0693 162.635 11.408C163.051 10.736 163.611 10.2133 164.315 9.84C165.03 9.456 165.846 9.264 166.763 9.264C167.67 9.264 168.481 9.456 169.195 9.84C169.91 10.2133 170.47 10.7307 170.875 11.392C171.281 12.0533 171.483 12.8213 171.483 13.696C171.483 14.5493 171.281 15.312 170.875 15.984C170.47 16.6453 169.91 17.168 169.195 17.552C168.481 17.936 167.67 18.128 166.763 18.128ZM166.763 16.08C167.179 16.08 167.553 15.984 167.883 15.792C168.214 15.6 168.475 15.328 168.667 14.976C168.859 14.6133 168.955 14.1867 168.955 13.696C168.955 13.1947 168.859 12.768 168.667 12.416C168.475 12.064 168.214 11.792 167.883 11.6C167.553 11.408 167.179 11.312 166.763 11.312C166.347 11.312 165.974 11.408 165.643 11.6C165.313 11.792 165.046 12.064 164.843 12.416C164.651 12.768 164.555 13.1947 164.555 13.696C164.555 14.1867 164.651 14.6133 164.843 14.976C165.046 15.328 165.313 15.6 165.643 15.792C165.974 15.984 166.347 16.08 166.763 16.08ZM177.296 18.128C176.368 18.128 175.541 17.9413 174.816 17.568C174.091 17.184 173.52 16.656 173.104 15.984C172.699 15.312 172.496 14.5493 172.496 13.696C172.496 12.832 172.699 12.0693 173.104 11.408C173.52 10.736 174.091 10.2133 174.816 9.84C175.541 9.456 176.368 9.264 177.296 9.264C178.203 9.264 178.992 9.456 179.664 9.84C180.336 10.2133 180.832 10.752 181.152 11.456L179.216 12.496C178.992 12.0907 178.709 11.792 178.368 11.6C178.037 11.408 177.675 11.312 177.28 11.312C176.853 11.312 176.469 11.408 176.128 11.6C175.787 11.792 175.515 12.064 175.312 12.416C175.12 12.768 175.024 13.1947 175.024 13.696C175.024 14.1973 175.12 14.624 175.312 14.976C175.515 15.328 175.787 15.6 176.128 15.792C176.469 15.984 176.853 16.08 177.28 16.08C177.675 16.08 178.037 15.9893 178.368 15.808C178.709 15.616 178.992 15.312 179.216 14.896L181.152 15.952C180.832 16.6453 180.336 17.184 179.664 17.568C178.992 17.9413 178.203 18.128 177.296 18.128ZM190.256 18.192C189.477 18.192 188.704 18.0907 187.936 17.888C187.168 17.6747 186.517 17.376 185.984 16.992L186.992 15.008C187.419 15.3173 187.915 15.5627 188.48 15.744C189.045 15.9253 189.616 16.016 190.192 16.016C190.843 16.016 191.355 15.888 191.728 15.632C192.101 15.376 192.288 15.024 192.288 14.576C192.288 14.1493 192.123 13.8133 191.792 13.568C191.461 13.3227 190.928 13.2 190.192 13.2H189.008V11.488L192.128 7.952L192.416 8.88H186.544V6.8H194.384V8.48L191.28 12.016L189.968 11.264H190.72C192.096 11.264 193.136 11.5733 193.84 12.192C194.544 12.8107 194.896 13.6053 194.896 14.576C194.896 15.2053 194.731 15.7973 194.4 16.352C194.069 16.896 193.563 17.3387 192.88 17.68C192.197 18.0213 191.323 18.192 190.256 18.192ZM201.254 18V9.52H202.79V15.696L207.99 9.52H209.382V18H207.846V11.824L202.662 18H201.254ZM214.702 18.112C215.449 18.112 216.11 18.0053 216.686 17.792C217.273 17.568 217.737 17.264 218.078 16.88C218.42 16.4853 218.59 16.032 218.59 15.52C218.59 14.88 218.318 14.3733 217.774 14C217.23 13.6267 216.484 13.44 215.534 13.44L215.47 13.808C216.025 13.808 216.516 13.7173 216.942 13.536C217.369 13.3547 217.71 13.1093 217.966 12.8C218.222 12.48 218.35 12.1173 218.35 11.712C218.35 11.232 218.18 10.816 217.838 10.464C217.508 10.112 217.054 9.84533 216.478 9.664C215.902 9.472 215.246 9.38667 214.51 9.408C214.02 9.41867 213.524 9.49333 213.022 9.632C212.532 9.76 212.03 9.94667 211.518 10.192L211.934 11.392C212.393 11.168 212.841 11.0027 213.278 10.896C213.726 10.7893 214.164 10.7307 214.59 10.72C215.028 10.72 215.406 10.768 215.726 10.864C216.057 10.96 216.313 11.0987 216.494 11.28C216.676 11.4613 216.766 11.68 216.766 11.936C216.766 12.1707 216.686 12.3787 216.526 12.56C216.377 12.7307 216.164 12.8587 215.886 12.944C215.609 13.0293 215.284 13.072 214.91 13.072H213.47V14.176H215.006C215.636 14.176 216.126 14.2827 216.478 14.496C216.83 14.7093 217.006 15.0133 217.006 15.408C217.006 15.6853 216.91 15.9307 216.718 16.144C216.526 16.3467 216.249 16.5067 215.886 16.624C215.534 16.7413 215.113 16.8 214.622 16.8C214.089 16.8 213.561 16.7307 213.038 16.592C212.516 16.4427 212.052 16.24 211.646 15.984L211.182 17.152C211.662 17.4613 212.206 17.7013 212.814 17.872C213.433 18.032 214.062 18.112 214.702 18.112ZM228.118 18.128C227.329 18.128 226.561 18.0053 225.814 17.76C225.078 17.5147 224.476 17.184 224.006 16.768L224.742 15.504C225.116 15.856 225.601 16.144 226.198 16.368C226.796 16.592 227.43 16.704 228.102 16.704C228.956 16.704 229.612 16.5227 230.07 16.16C230.529 15.7973 230.758 15.312 230.758 14.704C230.758 14.288 230.657 13.9253 230.454 13.616C230.252 13.3067 229.9 13.072 229.398 12.912C228.908 12.7413 228.23 12.656 227.366 12.656H224.822L225.414 6.8H231.734V8.192H226.006L226.838 7.408L226.374 12.032L225.542 11.264H227.702C228.822 11.264 229.724 11.408 230.406 11.696C231.089 11.984 231.585 12.384 231.894 12.896C232.204 13.3973 232.358 13.9787 232.358 14.64C232.358 15.28 232.204 15.8667 231.894 16.4C231.585 16.9227 231.116 17.344 230.486 17.664C229.868 17.9733 229.078 18.128 228.118 18.128Z" fill="#3C3C3C"/>
</svg>
