<svg width="389" height="27" viewBox="0 0 389 27" fill="none" xmlns="http://www.w3.org/2000/svg">
<rect x="0.5" y="0.5" width="387.387" height="25.6323" rx="12.8161" fill="#F6F6F6" stroke="#CFCFCF"/>
<rect width="77.6774" height="26.6323" rx="13.3161" fill="#FF2040"/>
<path d="M139.265 18.3291V7.1291H144.481C145.783 7.1291 146.796 7.37977 147.521 7.8811C148.247 8.38243 148.609 9.0971 148.609 10.0251C148.609 10.9424 148.268 11.6571 147.585 12.1691C146.903 12.6704 145.996 12.9211 144.865 12.9211L145.169 12.2491C146.428 12.2491 147.404 12.4998 148.097 13.0011C148.791 13.5024 149.137 14.2278 149.137 15.1771C149.137 16.1584 148.764 16.9318 148.017 17.4971C147.281 18.0518 146.204 18.3291 144.785 18.3291H139.265ZM141.841 16.4091H144.689C145.287 16.4091 145.74 16.2918 146.049 16.0571C146.359 15.8224 146.513 15.4598 146.513 14.9691C146.513 14.4998 146.359 14.1531 146.049 13.9291C145.74 13.6944 145.287 13.5771 144.689 13.5771H141.841V16.4091ZM141.841 11.7691H144.257C144.823 11.7691 145.249 11.6571 145.537 11.4331C145.825 11.1984 145.969 10.8571 145.969 10.4091C145.969 9.9611 145.825 9.6251 145.537 9.4011C145.249 9.16643 144.823 9.0491 144.257 9.0491H141.841V11.7691ZM155.027 18.4571C154.11 18.4571 153.294 18.2651 152.579 17.8811C151.875 17.4971 151.315 16.9744 150.899 16.3131C150.494 15.6411 150.291 14.8784 150.291 14.0251C150.291 13.1611 150.494 12.3984 150.899 11.7371C151.315 11.0651 151.875 10.5424 152.579 10.1691C153.294 9.7851 154.11 9.5931 155.027 9.5931C155.934 9.5931 156.744 9.7851 157.459 10.1691C158.174 10.5424 158.734 11.0598 159.139 11.7211C159.544 12.3824 159.747 13.1504 159.747 14.0251C159.747 14.8784 159.544 15.6411 159.139 16.3131C158.734 16.9744 158.174 17.4971 157.459 17.8811C156.744 18.2651 155.934 18.4571 155.027 18.4571ZM155.027 16.4091C155.443 16.4091 155.816 16.3131 156.147 16.1211C156.478 15.9291 156.739 15.6571 156.931 15.3051C157.123 14.9424 157.219 14.5158 157.219 14.0251C157.219 13.5238 157.123 13.0971 156.931 12.7451C156.739 12.3931 156.478 12.1211 156.147 11.9291C155.816 11.7371 155.443 11.6411 155.027 11.6411C154.611 11.6411 154.238 11.7371 153.907 11.9291C153.576 12.1211 153.31 12.3931 153.107 12.7451C152.915 13.0971 152.819 13.5238 152.819 14.0251C152.819 14.5158 152.915 14.9424 153.107 15.3051C153.31 15.6571 153.576 15.9291 153.907 16.1211C154.238 16.3131 154.611 16.4091 155.027 16.4091ZM161.464 18.3291V9.7211H170.024V18.3291H167.528V11.2091L168.088 11.7691H163.384L163.944 11.2091V18.3291H161.464ZM177.489 18.4571C176.764 18.4571 176.129 18.2971 175.585 17.9771C175.041 17.6571 174.614 17.1718 174.305 16.5211C174.006 15.8598 173.857 15.0278 173.857 14.0251C173.857 13.0118 174.001 12.1798 174.289 11.5291C174.577 10.8784 174.993 10.3931 175.537 10.0731C176.081 9.7531 176.732 9.5931 177.489 9.5931C178.3 9.5931 179.025 9.77977 179.665 10.1531C180.316 10.5158 180.828 11.0278 181.201 11.6891C181.585 12.3504 181.777 13.1291 181.777 14.0251C181.777 14.9318 181.585 15.7158 181.201 16.3771C180.828 17.0384 180.316 17.5504 179.665 17.9131C179.025 18.2758 178.3 18.4571 177.489 18.4571ZM172.401 21.4331V9.7211H174.785V11.4811L174.737 14.0411L174.897 16.5851V21.4331H172.401ZM177.057 16.4091C177.473 16.4091 177.841 16.3131 178.161 16.1211C178.492 15.9291 178.753 15.6571 178.945 15.3051C179.148 14.9424 179.249 14.5158 179.249 14.0251C179.249 13.5238 179.148 13.0971 178.945 12.7451C178.753 12.3931 178.492 12.1211 178.161 11.9291C177.841 11.7371 177.473 11.6411 177.057 11.6411C176.641 11.6411 176.268 11.7371 175.937 11.9291C175.606 12.1211 175.345 12.3931 175.153 12.7451C174.961 13.0971 174.865 13.5238 174.865 14.0251C174.865 14.5158 174.961 14.9424 175.153 15.3051C175.345 15.6571 175.606 15.9291 175.937 16.1211C176.268 16.3131 176.641 16.4091 177.057 16.4091ZM187.558 18.4571C186.641 18.4571 185.825 18.2651 185.11 17.8811C184.406 17.4971 183.846 16.9744 183.43 16.3131C183.025 15.6411 182.822 14.8784 182.822 14.0251C182.822 13.1611 183.025 12.3984 183.43 11.7371C183.846 11.0651 184.406 10.5424 185.11 10.1691C185.825 9.7851 186.641 9.5931 187.558 9.5931C188.465 9.5931 189.276 9.7851 189.99 10.1691C190.705 10.5424 191.265 11.0598 191.67 11.7211C192.076 12.3824 192.278 13.1504 192.278 14.0251C192.278 14.8784 192.076 15.6411 191.67 16.3131C191.265 16.9744 190.705 17.4971 189.99 17.8811C189.276 18.2651 188.465 18.4571 187.558 18.4571ZM187.558 16.4091C187.974 16.4091 188.348 16.3131 188.678 16.1211C189.009 15.9291 189.27 15.6571 189.462 15.3051C189.654 14.9424 189.75 14.5158 189.75 14.0251C189.75 13.5238 189.654 13.0971 189.462 12.7451C189.27 12.3931 189.009 12.1211 188.678 11.9291C188.348 11.7371 187.974 11.6411 187.558 11.6411C187.142 11.6411 186.769 11.7371 186.438 11.9291C186.108 12.1211 185.841 12.3931 185.638 12.7451C185.446 13.0971 185.35 13.5238 185.35 14.0251C185.35 14.5158 185.446 14.9424 185.638 15.3051C185.841 15.6571 186.108 15.9291 186.438 16.1211C186.769 16.3131 187.142 16.4091 187.558 16.4091ZM198.091 18.4571C197.163 18.4571 196.336 18.2704 195.611 17.8971C194.886 17.5131 194.315 16.9851 193.899 16.3131C193.494 15.6411 193.291 14.8784 193.291 14.0251C193.291 13.1611 193.494 12.3984 193.899 11.7371C194.315 11.0651 194.886 10.5424 195.611 10.1691C196.336 9.7851 197.163 9.5931 198.091 9.5931C198.998 9.5931 199.787 9.7851 200.459 10.1691C201.131 10.5424 201.627 11.0811 201.947 11.7851L200.011 12.8251C199.787 12.4198 199.504 12.1211 199.163 11.9291C198.832 11.7371 198.47 11.6411 198.075 11.6411C197.648 11.6411 197.264 11.7371 196.923 11.9291C196.582 12.1211 196.31 12.3931 196.107 12.7451C195.915 13.0971 195.819 13.5238 195.819 14.0251C195.819 14.5264 195.915 14.9531 196.107 15.3051C196.31 15.6571 196.582 15.9291 196.923 16.1211C197.264 16.3131 197.648 16.4091 198.075 16.4091C198.47 16.4091 198.832 16.3184 199.163 16.1371C199.504 15.9451 199.787 15.6411 200.011 15.2251L201.947 16.2811C201.627 16.9744 201.131 17.5131 200.459 17.8971C199.787 18.2704 198.998 18.4571 198.091 18.4571ZM209.147 18.3291V8.0891L210.267 9.2091H206.907V7.1291H211.739V18.3291H209.147ZM218.846 18.3291V9.8491H220.382V16.0251L225.582 9.8491H226.974V18.3291H225.438V12.1531L220.254 18.3291H218.846ZM232.294 18.4411C233.041 18.4411 233.702 18.3344 234.278 18.1211C234.865 17.8971 235.329 17.5931 235.67 17.2091C236.012 16.8144 236.182 16.3611 236.182 15.8491C236.182 15.2091 235.91 14.7024 235.366 14.3291C234.822 13.9558 234.076 13.7691 233.126 13.7691L233.062 14.1371C233.617 14.1371 234.108 14.0464 234.534 13.8651C234.961 13.6838 235.302 13.4384 235.558 13.1291C235.814 12.8091 235.942 12.4464 235.942 12.0411C235.942 11.5611 235.772 11.1451 235.43 10.7931C235.1 10.4411 234.646 10.1744 234.07 9.9931C233.494 9.8011 232.838 9.71577 232.102 9.7371C231.612 9.74777 231.116 9.82243 230.614 9.9611C230.124 10.0891 229.622 10.2758 229.11 10.5211L229.526 11.7211C229.985 11.4971 230.433 11.3318 230.87 11.2251C231.318 11.1184 231.756 11.0598 232.182 11.0491C232.62 11.0491 232.998 11.0971 233.318 11.1931C233.649 11.2891 233.905 11.4278 234.086 11.6091C234.268 11.7904 234.358 12.0091 234.358 12.2651C234.358 12.4998 234.278 12.7078 234.118 12.8891C233.969 13.0598 233.756 13.1878 233.478 13.2731C233.201 13.3584 232.876 13.4011 232.502 13.4011H231.062V14.5051H232.598C233.228 14.5051 233.718 14.6118 234.07 14.8251C234.422 15.0384 234.598 15.3424 234.598 15.7371C234.598 16.0144 234.502 16.2598 234.31 16.4731C234.118 16.6758 233.841 16.8358 233.478 16.9531C233.126 17.0704 232.705 17.1291 232.214 17.1291C231.681 17.1291 231.153 17.0598 230.63 16.9211C230.108 16.7718 229.644 16.5691 229.238 16.3131L228.774 17.4811C229.254 17.7904 229.798 18.0304 230.406 18.2011C231.025 18.3611 231.654 18.4411 232.294 18.4411ZM245.71 18.4571C244.921 18.4571 244.153 18.3344 243.406 18.0891C242.67 17.8438 242.068 17.5131 241.598 17.0971L242.334 15.8331C242.708 16.1851 243.193 16.4731 243.79 16.6971C244.388 16.9211 245.022 17.0331 245.694 17.0331C246.548 17.0331 247.204 16.8518 247.662 16.4891C248.121 16.1264 248.35 15.6411 248.35 15.0331C248.35 14.6171 248.249 14.2544 248.046 13.9451C247.844 13.6358 247.492 13.4011 246.99 13.2411C246.5 13.0704 245.822 12.9851 244.958 12.9851H242.414L243.006 7.1291H249.326V8.5211H243.598L244.43 7.7371L243.966 12.3611L243.134 11.5931H245.294C246.414 11.5931 247.316 11.7371 247.998 12.0251C248.681 12.3131 249.177 12.7131 249.486 13.2251C249.796 13.7264 249.95 14.3078 249.95 14.9691C249.95 15.6091 249.796 16.1958 249.486 16.7291C249.177 17.2518 248.708 17.6731 248.078 17.9931C247.46 18.3024 246.67 18.4571 245.71 18.4571Z" fill="#3C3C3C"/>
</svg>
