<svg width="350" height="24" viewBox="0 0 350 24" fill="none" xmlns="http://www.w3.org/2000/svg">
<rect x="0.5" y="0.5" width="349" height="23" rx="11.5" fill="#F6F6F6" stroke="#CFCFCF"/>
<rect width="140" height="24" rx="12" fill="#FF2040"/>
<path d="M118.486 18V6.8H123.702C125.003 6.8 126.016 7.05067 126.742 7.552C127.467 8.05333 127.83 8.768 127.83 9.696C127.83 10.6133 127.488 11.328 126.806 11.84C126.123 12.3413 125.216 12.592 124.086 12.592L124.39 11.92C125.648 11.92 126.624 12.1707 127.318 12.672C128.011 13.1733 128.358 13.8987 128.358 14.848C128.358 15.8293 127.984 16.6027 127.238 17.168C126.502 17.7227 125.424 18 124.006 18H118.486ZM121.062 16.08H123.91C124.507 16.08 124.96 15.9627 125.27 15.728C125.579 15.4933 125.734 15.1307 125.734 14.64C125.734 14.1707 125.579 13.824 125.27 13.6C124.96 13.3653 124.507 13.248 123.91 13.248H121.062V16.08ZM121.062 11.44H123.478C124.043 11.44 124.47 11.328 124.758 11.104C125.046 10.8693 125.19 10.528 125.19 10.08C125.19 9.632 125.046 9.296 124.758 9.072C124.47 8.83733 124.043 8.72 123.478 8.72H121.062V11.44ZM134.248 18.128C133.33 18.128 132.514 17.936 131.8 17.552C131.096 17.168 130.536 16.6453 130.12 15.984C129.714 15.312 129.512 14.5493 129.512 13.696C129.512 12.832 129.714 12.0693 130.12 11.408C130.536 10.736 131.096 10.2133 131.8 9.84C132.514 9.456 133.33 9.264 134.248 9.264C135.154 9.264 135.965 9.456 136.68 9.84C137.394 10.2133 137.954 10.7307 138.36 11.392C138.765 12.0533 138.968 12.8213 138.968 13.696C138.968 14.5493 138.765 15.312 138.36 15.984C137.954 16.6453 137.394 17.168 136.68 17.552C135.965 17.936 135.154 18.128 134.248 18.128ZM134.248 16.08C134.664 16.08 135.037 15.984 135.368 15.792C135.698 15.6 135.96 15.328 136.152 14.976C136.344 14.6133 136.44 14.1867 136.44 13.696C136.44 13.1947 136.344 12.768 136.152 12.416C135.96 12.064 135.698 11.792 135.368 11.6C135.037 11.408 134.664 11.312 134.248 11.312C133.832 11.312 133.458 11.408 133.128 11.6C132.797 11.792 132.53 12.064 132.328 12.416C132.136 12.768 132.04 13.1947 132.04 13.696C132.04 14.1867 132.136 14.6133 132.328 14.976C132.53 15.328 132.797 15.6 133.128 15.792C133.458 15.984 133.832 16.08 134.248 16.08ZM140.684 18V9.392H149.244V18H146.748V10.88L147.308 11.44H142.604L143.164 10.88V18H140.684ZM156.71 18.128C155.984 18.128 155.35 17.968 154.806 17.648C154.262 17.328 153.835 16.8427 153.526 16.192C153.227 15.5307 153.078 14.6987 153.078 13.696C153.078 12.6827 153.222 11.8507 153.51 11.2C153.798 10.5493 154.214 10.064 154.758 9.744C155.302 9.424 155.952 9.264 156.71 9.264C157.52 9.264 158.246 9.45067 158.885 9.824C159.536 10.1867 160.048 10.6987 160.422 11.36C160.806 12.0213 160.998 12.8 160.998 13.696C160.998 14.6027 160.806 15.3867 160.422 16.048C160.048 16.7093 159.536 17.2213 158.885 17.584C158.246 17.9467 157.52 18.128 156.71 18.128ZM151.622 21.104V9.392H154.006V11.152L153.958 13.712L154.118 16.256V21.104H151.622ZM156.278 16.08C156.694 16.08 157.062 15.984 157.382 15.792C157.712 15.6 157.974 15.328 158.166 14.976C158.368 14.6133 158.47 14.1867 158.47 13.696C158.47 13.1947 158.368 12.768 158.166 12.416C157.974 12.064 157.712 11.792 157.382 11.6C157.062 11.408 156.694 11.312 156.278 11.312C155.862 11.312 155.488 11.408 155.158 11.6C154.827 11.792 154.566 12.064 154.374 12.416C154.182 12.768 154.086 13.1947 154.086 13.696C154.086 14.1867 154.182 14.6133 154.374 14.976C154.566 15.328 154.827 15.6 155.158 15.792C155.488 15.984 155.862 16.08 156.278 16.08ZM166.779 18.128C165.862 18.128 165.046 17.936 164.331 17.552C163.627 17.168 163.067 16.6453 162.651 15.984C162.246 15.312 162.043 14.5493 162.043 13.696C162.043 12.832 162.246 12.0693 162.651 11.408C163.067 10.736 163.627 10.2133 164.331 9.84C165.046 9.456 165.862 9.264 166.779 9.264C167.686 9.264 168.496 9.456 169.211 9.84C169.926 10.2133 170.486 10.7307 170.891 11.392C171.296 12.0533 171.499 12.8213 171.499 13.696C171.499 14.5493 171.296 15.312 170.891 15.984C170.486 16.6453 169.926 17.168 169.211 17.552C168.496 17.936 167.686 18.128 166.779 18.128ZM166.779 16.08C167.195 16.08 167.568 15.984 167.899 15.792C168.23 15.6 168.491 15.328 168.683 14.976C168.875 14.6133 168.971 14.1867 168.971 13.696C168.971 13.1947 168.875 12.768 168.683 12.416C168.491 12.064 168.23 11.792 167.899 11.6C167.568 11.408 167.195 11.312 166.779 11.312C166.363 11.312 165.99 11.408 165.659 11.6C165.328 11.792 165.062 12.064 164.859 12.416C164.667 12.768 164.571 13.1947 164.571 13.696C164.571 14.1867 164.667 14.6133 164.859 14.976C165.062 15.328 165.328 15.6 165.659 15.792C165.99 15.984 166.363 16.08 166.779 16.08ZM177.312 18.128C176.384 18.128 175.557 17.9413 174.832 17.568C174.106 17.184 173.536 16.656 173.12 15.984C172.714 15.312 172.512 14.5493 172.512 13.696C172.512 12.832 172.714 12.0693 173.12 11.408C173.536 10.736 174.106 10.2133 174.832 9.84C175.557 9.456 176.384 9.264 177.312 9.264C178.218 9.264 179.008 9.456 179.68 9.84C180.352 10.2133 180.848 10.752 181.168 11.456L179.232 12.496C179.008 12.0907 178.725 11.792 178.384 11.6C178.053 11.408 177.69 11.312 177.296 11.312C176.869 11.312 176.485 11.408 176.144 11.6C175.802 11.792 175.53 12.064 175.328 12.416C175.136 12.768 175.04 13.1947 175.04 13.696C175.04 14.1973 175.136 14.624 175.328 14.976C175.53 15.328 175.802 15.6 176.144 15.792C176.485 15.984 176.869 16.08 177.296 16.08C177.69 16.08 178.053 15.9893 178.384 15.808C178.725 15.616 179.008 15.312 179.232 14.896L181.168 15.952C180.848 16.6453 180.352 17.184 179.68 17.568C179.008 17.9413 178.218 18.128 177.312 18.128ZM186.544 18V16.32L190.864 12.24C191.205 11.9307 191.456 11.6533 191.616 11.408C191.776 11.1627 191.882 10.9387 191.936 10.736C192 10.5333 192.032 10.3467 192.032 10.176C192.032 9.728 191.877 9.38667 191.568 9.152C191.269 8.90667 190.826 8.784 190.24 8.784C189.77 8.784 189.333 8.87467 188.928 9.056C188.533 9.23733 188.197 9.52 187.92 9.904L186.032 8.688C186.458 8.048 187.056 7.54133 187.824 7.168C188.592 6.79467 189.477 6.608 190.48 6.608C191.312 6.608 192.037 6.74667 192.656 7.024C193.285 7.29067 193.77 7.66933 194.112 8.16C194.464 8.65067 194.64 9.23733 194.64 9.92C194.64 10.2827 194.592 10.6453 194.496 11.008C194.41 11.36 194.229 11.7333 193.952 12.128C193.685 12.5227 193.29 12.9653 192.768 13.456L189.184 16.832L188.688 15.888H195.008V18H186.544ZM201.238 18V9.52H202.774V15.696L207.974 9.52H209.366V18H207.83V11.824L202.646 18H201.238ZM214.687 18.112C215.433 18.112 216.095 18.0053 216.671 17.792C217.257 17.568 217.721 17.264 218.063 16.88C218.404 16.4853 218.575 16.032 218.575 15.52C218.575 14.88 218.303 14.3733 217.759 14C217.215 13.6267 216.468 13.44 215.519 13.44L215.455 13.808C216.009 13.808 216.5 13.7173 216.927 13.536C217.353 13.3547 217.695 13.1093 217.951 12.8C218.207 12.48 218.335 12.1173 218.335 11.712C218.335 11.232 218.164 10.816 217.823 10.464C217.492 10.112 217.039 9.84533 216.463 9.664C215.887 9.472 215.231 9.38667 214.495 9.408C214.004 9.41867 213.508 9.49333 213.007 9.632C212.516 9.76 212.015 9.94667 211.503 10.192L211.919 11.392C212.377 11.168 212.825 11.0027 213.263 10.896C213.711 10.7893 214.148 10.7307 214.575 10.72C215.012 10.72 215.391 10.768 215.711 10.864C216.041 10.96 216.297 11.0987 216.479 11.28C216.66 11.4613 216.751 11.68 216.751 11.936C216.751 12.1707 216.671 12.3787 216.511 12.56C216.361 12.7307 216.148 12.8587 215.871 12.944C215.593 13.0293 215.268 13.072 214.895 13.072H213.455V14.176H214.991C215.62 14.176 216.111 14.2827 216.463 14.496C216.815 14.7093 216.991 15.0133 216.991 15.408C216.991 15.6853 216.895 15.9307 216.703 16.144C216.511 16.3467 216.233 16.5067 215.871 16.624C215.519 16.7413 215.097 16.8 214.607 16.8C214.073 16.8 213.545 16.7307 213.023 16.592C212.5 16.4427 212.036 16.24 211.631 15.984L211.167 17.152C211.647 17.4613 212.191 17.7013 212.799 17.872C213.417 18.032 214.047 18.112 214.687 18.112ZM228.103 18.128C227.313 18.128 226.545 18.0053 225.799 17.76C225.063 17.5147 224.46 17.184 223.991 16.768L224.727 15.504C225.1 15.856 225.585 16.144 226.183 16.368C226.78 16.592 227.415 16.704 228.087 16.704C228.94 16.704 229.596 16.5227 230.055 16.16C230.513 15.7973 230.743 15.312 230.743 14.704C230.743 14.288 230.641 13.9253 230.439 13.616C230.236 13.3067 229.884 13.072 229.383 12.912C228.892 12.7413 228.215 12.656 227.351 12.656H224.807L225.399 6.8H231.719V8.192H225.991L226.823 7.408L226.359 12.032L225.527 11.264H227.687C228.807 11.264 229.708 11.408 230.391 11.696C231.073 11.984 231.569 12.384 231.879 12.896C232.188 13.3973 232.343 13.9787 232.343 14.64C232.343 15.28 232.188 15.8667 231.879 16.4C231.569 16.9227 231.1 17.344 230.471 17.664C229.852 17.9733 229.063 18.128 228.103 18.128Z" fill="#3C3C3C"/>
</svg>
