<svg width="350" height="24" viewBox="0 0 350 24" fill="none" xmlns="http://www.w3.org/2000/svg">
<rect x="0.5" y="0.5" width="349" height="23" rx="11.5" fill="#F6F6F6" stroke="#CFCFCF"/>
<rect width="350" height="24" rx="12" fill="#FF2040"/>
<path d="M118.447 18V6.8H123.663C124.964 6.8 125.977 7.05067 126.703 7.552C127.428 8.05333 127.791 8.768 127.791 9.696C127.791 10.6133 127.449 11.328 126.767 11.84C126.084 12.3413 125.177 12.592 124.047 12.592L124.351 11.92C125.609 11.92 126.585 12.1707 127.279 12.672C127.972 13.1733 128.319 13.8987 128.319 14.848C128.319 15.8293 127.945 16.6027 127.199 17.168C126.463 17.7227 125.385 18 123.967 18H118.447ZM121.023 16.08H123.871C124.468 16.08 124.921 15.9627 125.231 15.728C125.54 15.4933 125.695 15.1307 125.695 14.64C125.695 14.1707 125.54 13.824 125.231 13.6C124.921 13.3653 124.468 13.248 123.871 13.248H121.023V16.08ZM121.023 11.44H123.439C124.004 11.44 124.431 11.328 124.719 11.104C125.007 10.8693 125.151 10.528 125.151 10.08C125.151 9.632 125.007 9.296 124.719 9.072C124.431 8.83733 124.004 8.72 123.439 8.72H121.023V11.44ZM134.209 18.128C133.291 18.128 132.475 17.936 131.761 17.552C131.057 17.168 130.497 16.6453 130.081 15.984C129.675 15.312 129.473 14.5493 129.473 13.696C129.473 12.832 129.675 12.0693 130.081 11.408C130.497 10.736 131.057 10.2133 131.761 9.84C132.475 9.456 133.291 9.264 134.209 9.264C135.115 9.264 135.926 9.456 136.641 9.84C137.355 10.2133 137.915 10.7307 138.321 11.392C138.726 12.0533 138.929 12.8213 138.929 13.696C138.929 14.5493 138.726 15.312 138.321 15.984C137.915 16.6453 137.355 17.168 136.641 17.552C135.926 17.936 135.115 18.128 134.209 18.128ZM134.209 16.08C134.625 16.08 134.998 15.984 135.329 15.792C135.659 15.6 135.921 15.328 136.113 14.976C136.305 14.6133 136.401 14.1867 136.401 13.696C136.401 13.1947 136.305 12.768 136.113 12.416C135.921 12.064 135.659 11.792 135.329 11.6C134.998 11.408 134.625 11.312 134.209 11.312C133.793 11.312 133.419 11.408 133.089 11.6C132.758 11.792 132.491 12.064 132.289 12.416C132.097 12.768 132.001 13.1947 132.001 13.696C132.001 14.1867 132.097 14.6133 132.289 14.976C132.491 15.328 132.758 15.6 133.089 15.792C133.419 15.984 133.793 16.08 134.209 16.08ZM140.645 18V9.392H149.205V18H146.709V10.88L147.269 11.44H142.565L143.125 10.88V18H140.645ZM156.67 18.128C155.945 18.128 155.31 17.968 154.766 17.648C154.222 17.328 153.796 16.8427 153.486 16.192C153.188 15.5307 153.038 14.6987 153.038 13.696C153.038 12.6827 153.182 11.8507 153.47 11.2C153.758 10.5493 154.174 10.064 154.718 9.744C155.262 9.424 155.913 9.264 156.67 9.264C157.481 9.264 158.206 9.45067 158.846 9.824C159.497 10.1867 160.009 10.6987 160.382 11.36C160.766 12.0213 160.958 12.8 160.958 13.696C160.958 14.6027 160.766 15.3867 160.382 16.048C160.009 16.7093 159.497 17.2213 158.846 17.584C158.206 17.9467 157.481 18.128 156.67 18.128ZM151.582 21.104V9.392H153.966V11.152L153.918 13.712L154.078 16.256V21.104H151.582ZM156.238 16.08C156.654 16.08 157.022 15.984 157.342 15.792C157.673 15.6 157.934 15.328 158.126 14.976C158.329 14.6133 158.43 14.1867 158.43 13.696C158.43 13.1947 158.329 12.768 158.126 12.416C157.934 12.064 157.673 11.792 157.342 11.6C157.022 11.408 156.654 11.312 156.238 11.312C155.822 11.312 155.449 11.408 155.118 11.6C154.788 11.792 154.526 12.064 154.334 12.416C154.142 12.768 154.046 13.1947 154.046 13.696C154.046 14.1867 154.142 14.6133 154.334 14.976C154.526 15.328 154.788 15.6 155.118 15.792C155.449 15.984 155.822 16.08 156.238 16.08ZM166.74 18.128C165.822 18.128 165.006 17.936 164.292 17.552C163.588 17.168 163.028 16.6453 162.612 15.984C162.206 15.312 162.004 14.5493 162.004 13.696C162.004 12.832 162.206 12.0693 162.612 11.408C163.028 10.736 163.588 10.2133 164.292 9.84C165.006 9.456 165.822 9.264 166.74 9.264C167.646 9.264 168.457 9.456 169.172 9.84C169.886 10.2133 170.446 10.7307 170.852 11.392C171.257 12.0533 171.46 12.8213 171.46 13.696C171.46 14.5493 171.257 15.312 170.852 15.984C170.446 16.6453 169.886 17.168 169.172 17.552C168.457 17.936 167.646 18.128 166.74 18.128ZM166.74 16.08C167.156 16.08 167.529 15.984 167.86 15.792C168.19 15.6 168.452 15.328 168.644 14.976C168.836 14.6133 168.932 14.1867 168.932 13.696C168.932 13.1947 168.836 12.768 168.644 12.416C168.452 12.064 168.19 11.792 167.86 11.6C167.529 11.408 167.156 11.312 166.74 11.312C166.324 11.312 165.95 11.408 165.62 11.6C165.289 11.792 165.022 12.064 164.82 12.416C164.628 12.768 164.532 13.1947 164.532 13.696C164.532 14.1867 164.628 14.6133 164.82 14.976C165.022 15.328 165.289 15.6 165.62 15.792C165.95 15.984 166.324 16.08 166.74 16.08ZM177.273 18.128C176.345 18.128 175.518 17.9413 174.793 17.568C174.067 17.184 173.497 16.656 173.081 15.984C172.675 15.312 172.473 14.5493 172.473 13.696C172.473 12.832 172.675 12.0693 173.081 11.408C173.497 10.736 174.067 10.2133 174.793 9.84C175.518 9.456 176.345 9.264 177.273 9.264C178.179 9.264 178.969 9.456 179.641 9.84C180.313 10.2133 180.809 10.752 181.129 11.456L179.193 12.496C178.969 12.0907 178.686 11.792 178.345 11.6C178.014 11.408 177.651 11.312 177.257 11.312C176.83 11.312 176.446 11.408 176.105 11.6C175.763 11.792 175.491 12.064 175.289 12.416C175.097 12.768 175.001 13.1947 175.001 13.696C175.001 14.1973 175.097 14.624 175.289 14.976C175.491 15.328 175.763 15.6 176.105 15.792C176.446 15.984 176.83 16.08 177.257 16.08C177.651 16.08 178.014 15.9893 178.345 15.808C178.686 15.616 178.969 15.312 179.193 14.896L181.129 15.952C180.809 16.6453 180.313 17.184 179.641 17.568C178.969 17.9413 178.179 18.128 177.273 18.128ZM190.409 18.192C189.63 18.192 188.857 18.0907 188.089 17.888C187.331 17.6747 186.681 17.376 186.137 16.992L187.161 15.008C187.587 15.3173 188.078 15.5627 188.633 15.744C189.198 15.9253 189.769 16.016 190.345 16.016C190.995 16.016 191.507 15.888 191.881 15.632C192.254 15.376 192.441 15.0187 192.441 14.56C192.441 14.272 192.366 14.016 192.217 13.792C192.067 13.568 191.801 13.3973 191.417 13.28C191.043 13.1627 190.515 13.104 189.833 13.104H186.969L187.545 6.8H194.377V8.88H188.473L189.817 7.696L189.417 12.192L188.073 11.008H190.441C191.55 11.008 192.441 11.1627 193.113 11.472C193.795 11.7707 194.291 12.1813 194.601 12.704C194.91 13.2267 195.065 13.8187 195.065 14.48C195.065 15.1413 194.899 15.7547 194.569 16.32C194.238 16.8747 193.726 17.328 193.033 17.68C192.35 18.0213 191.475 18.192 190.409 18.192ZM201.277 18V9.52H202.813V15.696L208.013 9.52H209.405V18H207.869V11.824L202.685 18H201.277ZM214.726 18.112C215.472 18.112 216.134 18.0053 216.71 17.792C217.296 17.568 217.76 17.264 218.102 16.88C218.443 16.4853 218.614 16.032 218.614 15.52C218.614 14.88 218.342 14.3733 217.798 14C217.254 13.6267 216.507 13.44 215.558 13.44L215.494 13.808C216.048 13.808 216.539 13.7173 216.966 13.536C217.392 13.3547 217.734 13.1093 217.99 12.8C218.246 12.48 218.374 12.1173 218.374 11.712C218.374 11.232 218.203 10.816 217.862 10.464C217.531 10.112 217.078 9.84533 216.502 9.664C215.926 9.472 215.27 9.38667 214.534 9.408C214.043 9.41867 213.547 9.49333 213.046 9.632C212.555 9.76 212.054 9.94667 211.542 10.192L211.958 11.392C212.416 11.168 212.864 11.0027 213.302 10.896C213.75 10.7893 214.187 10.7307 214.614 10.72C215.051 10.72 215.43 10.768 215.75 10.864C216.08 10.96 216.336 11.0987 216.518 11.28C216.699 11.4613 216.79 11.68 216.79 11.936C216.79 12.1707 216.71 12.3787 216.55 12.56C216.4 12.7307 216.187 12.8587 215.91 12.944C215.632 13.0293 215.307 13.072 214.934 13.072H213.494V14.176H215.03C215.659 14.176 216.15 14.2827 216.502 14.496C216.854 14.7093 217.03 15.0133 217.03 15.408C217.03 15.6853 216.934 15.9307 216.742 16.144C216.55 16.3467 216.272 16.5067 215.91 16.624C215.558 16.7413 215.136 16.8 214.646 16.8C214.112 16.8 213.584 16.7307 213.062 16.592C212.539 16.4427 212.075 16.24 211.67 15.984L211.206 17.152C211.686 17.4613 212.23 17.7013 212.838 17.872C213.456 18.032 214.086 18.112 214.726 18.112ZM228.142 18.128C227.352 18.128 226.584 18.0053 225.838 17.76C225.102 17.5147 224.499 17.184 224.03 16.768L224.766 15.504C225.139 15.856 225.624 16.144 226.222 16.368C226.819 16.592 227.454 16.704 228.126 16.704C228.979 16.704 229.635 16.5227 230.094 16.16C230.552 15.7973 230.782 15.312 230.782 14.704C230.782 14.288 230.68 13.9253 230.478 13.616C230.275 13.3067 229.923 13.072 229.422 12.912C228.931 12.7413 228.254 12.656 227.39 12.656H224.846L225.438 6.8H231.758V8.192H226.03L226.862 7.408L226.398 12.032L225.566 11.264H227.726C228.846 11.264 229.747 11.408 230.43 11.696C231.112 11.984 231.608 12.384 231.918 12.896C232.227 13.3973 232.382 13.9787 232.382 14.64C232.382 15.28 232.227 15.8667 231.918 16.4C231.608 16.9227 231.139 17.344 230.51 17.664C229.891 17.9733 229.102 18.128 228.142 18.128Z" fill="#3C3C3C"/>
</svg>
