<svg width="350" height="24" viewBox="0 0 350 24" fill="none" xmlns="http://www.w3.org/2000/svg">
<rect x="0.5" y="0.5" width="349" height="23" rx="11.5" fill="#F6F6F6" stroke="#CFCFCF"/>
<rect width="280" height="24" rx="12" fill="#FF2040"/>
<path d="M117.689 18V6.8H122.905C124.206 6.8 125.22 7.05067 125.945 7.552C126.67 8.05333 127.033 8.768 127.033 9.696C127.033 10.6133 126.692 11.328 126.009 11.84C125.326 12.3413 124.42 12.592 123.289 12.592L123.593 11.92C124.852 11.92 125.828 12.1707 126.521 12.672C127.214 13.1733 127.561 13.8987 127.561 14.848C127.561 15.8293 127.188 16.6027 126.441 17.168C125.705 17.7227 124.628 18 123.209 18H117.689ZM120.265 16.08H123.113C123.71 16.08 124.164 15.9627 124.473 15.728C124.782 15.4933 124.937 15.1307 124.937 14.64C124.937 14.1707 124.782 13.824 124.473 13.6C124.164 13.3653 123.71 13.248 123.113 13.248H120.265V16.08ZM120.265 11.44H122.681C123.246 11.44 123.673 11.328 123.961 11.104C124.249 10.8693 124.393 10.528 124.393 10.08C124.393 9.632 124.249 9.296 123.961 9.072C123.673 8.83733 123.246 8.72 122.681 8.72H120.265V11.44ZM133.451 18.128C132.533 18.128 131.717 17.936 131.003 17.552C130.299 17.168 129.739 16.6453 129.323 15.984C128.917 15.312 128.715 14.5493 128.715 13.696C128.715 12.832 128.917 12.0693 129.323 11.408C129.739 10.736 130.299 10.2133 131.003 9.84C131.717 9.456 132.533 9.264 133.451 9.264C134.357 9.264 135.168 9.456 135.883 9.84C136.597 10.2133 137.157 10.7307 137.563 11.392C137.968 12.0533 138.171 12.8213 138.171 13.696C138.171 14.5493 137.968 15.312 137.563 15.984C137.157 16.6453 136.597 17.168 135.883 17.552C135.168 17.936 134.357 18.128 133.451 18.128ZM133.451 16.08C133.867 16.08 134.24 15.984 134.571 15.792C134.901 15.6 135.163 15.328 135.355 14.976C135.547 14.6133 135.643 14.1867 135.643 13.696C135.643 13.1947 135.547 12.768 135.355 12.416C135.163 12.064 134.901 11.792 134.571 11.6C134.24 11.408 133.867 11.312 133.451 11.312C133.035 11.312 132.661 11.408 132.331 11.6C132 11.792 131.733 12.064 131.531 12.416C131.339 12.768 131.243 13.1947 131.243 13.696C131.243 14.1867 131.339 14.6133 131.531 14.976C131.733 15.328 132 15.6 132.331 15.792C132.661 15.984 133.035 16.08 133.451 16.08ZM139.888 18V9.392H148.448V18H145.952V10.88L146.512 11.44H141.808L142.368 10.88V18H139.888ZM155.913 18.128C155.187 18.128 154.553 17.968 154.009 17.648C153.465 17.328 153.038 16.8427 152.729 16.192C152.43 15.5307 152.281 14.6987 152.281 13.696C152.281 12.6827 152.425 11.8507 152.713 11.2C153.001 10.5493 153.417 10.064 153.961 9.744C154.505 9.424 155.155 9.264 155.913 9.264C156.723 9.264 157.449 9.45067 158.089 9.824C158.739 10.1867 159.251 10.6987 159.625 11.36C160.009 12.0213 160.201 12.8 160.201 13.696C160.201 14.6027 160.009 15.3867 159.625 16.048C159.251 16.7093 158.739 17.2213 158.089 17.584C157.449 17.9467 156.723 18.128 155.913 18.128ZM150.825 21.104V9.392H153.209V11.152L153.161 13.712L153.321 16.256V21.104H150.825ZM155.481 16.08C155.897 16.08 156.265 15.984 156.585 15.792C156.915 15.6 157.177 15.328 157.369 14.976C157.571 14.6133 157.673 14.1867 157.673 13.696C157.673 13.1947 157.571 12.768 157.369 12.416C157.177 12.064 156.915 11.792 156.585 11.6C156.265 11.408 155.897 11.312 155.481 11.312C155.065 11.312 154.691 11.408 154.361 11.6C154.03 11.792 153.769 12.064 153.577 12.416C153.385 12.768 153.289 13.1947 153.289 13.696C153.289 14.1867 153.385 14.6133 153.577 14.976C153.769 15.328 154.03 15.6 154.361 15.792C154.691 15.984 155.065 16.08 155.481 16.08ZM165.982 18.128C165.065 18.128 164.249 17.936 163.534 17.552C162.83 17.168 162.27 16.6453 161.854 15.984C161.449 15.312 161.246 14.5493 161.246 13.696C161.246 12.832 161.449 12.0693 161.854 11.408C162.27 10.736 162.83 10.2133 163.534 9.84C164.249 9.456 165.065 9.264 165.982 9.264C166.889 9.264 167.699 9.456 168.414 9.84C169.129 10.2133 169.689 10.7307 170.094 11.392C170.499 12.0533 170.702 12.8213 170.702 13.696C170.702 14.5493 170.499 15.312 170.094 15.984C169.689 16.6453 169.129 17.168 168.414 17.552C167.699 17.936 166.889 18.128 165.982 18.128ZM165.982 16.08C166.398 16.08 166.771 15.984 167.102 15.792C167.433 15.6 167.694 15.328 167.886 14.976C168.078 14.6133 168.174 14.1867 168.174 13.696C168.174 13.1947 168.078 12.768 167.886 12.416C167.694 12.064 167.433 11.792 167.102 11.6C166.771 11.408 166.398 11.312 165.982 11.312C165.566 11.312 165.193 11.408 164.862 11.6C164.531 11.792 164.265 12.064 164.062 12.416C163.87 12.768 163.774 13.1947 163.774 13.696C163.774 14.1867 163.87 14.6133 164.062 14.976C164.265 15.328 164.531 15.6 164.862 15.792C165.193 15.984 165.566 16.08 165.982 16.08ZM176.515 18.128C175.587 18.128 174.76 17.9413 174.035 17.568C173.309 17.184 172.739 16.656 172.323 15.984C171.917 15.312 171.715 14.5493 171.715 13.696C171.715 12.832 171.917 12.0693 172.323 11.408C172.739 10.736 173.309 10.2133 174.035 9.84C174.76 9.456 175.587 9.264 176.515 9.264C177.421 9.264 178.211 9.456 178.883 9.84C179.555 10.2133 180.051 10.752 180.371 11.456L178.435 12.496C178.211 12.0907 177.928 11.792 177.587 11.6C177.256 11.408 176.893 11.312 176.499 11.312C176.072 11.312 175.688 11.408 175.347 11.6C175.005 11.792 174.733 12.064 174.531 12.416C174.339 12.768 174.243 13.1947 174.243 13.696C174.243 14.1973 174.339 14.624 174.531 14.976C174.733 15.328 175.005 15.6 175.347 15.792C175.688 15.984 176.072 16.08 176.499 16.08C176.893 16.08 177.256 15.9893 177.587 15.808C177.928 15.616 178.211 15.312 178.435 14.896L180.371 15.952C180.051 16.6453 179.555 17.184 178.883 17.568C178.211 17.9413 177.421 18.128 176.515 18.128ZM185.715 15.648V13.904L190.995 6.8H193.715L188.547 13.904L187.283 13.536H196.099V15.648H185.715ZM191.747 18V15.648L191.827 13.536V11.44H194.275V18H191.747ZM202.035 18V9.52H203.571V15.696L208.771 9.52H210.163V18H208.627V11.824L203.443 18H202.035ZM215.484 18.112C216.23 18.112 216.892 18.0053 217.468 17.792C218.054 17.568 218.518 17.264 218.86 16.88C219.201 16.4853 219.372 16.032 219.372 15.52C219.372 14.88 219.1 14.3733 218.556 14C218.012 13.6267 217.265 13.44 216.316 13.44L216.252 13.808C216.806 13.808 217.297 13.7173 217.724 13.536C218.15 13.3547 218.492 13.1093 218.748 12.8C219.004 12.48 219.132 12.1173 219.132 11.712C219.132 11.232 218.961 10.816 218.62 10.464C218.289 10.112 217.836 9.84533 217.26 9.664C216.684 9.472 216.028 9.38667 215.292 9.408C214.801 9.41867 214.305 9.49333 213.804 9.632C213.313 9.76 212.812 9.94667 212.3 10.192L212.716 11.392C213.174 11.168 213.622 11.0027 214.06 10.896C214.508 10.7893 214.945 10.7307 215.372 10.72C215.809 10.72 216.188 10.768 216.508 10.864C216.838 10.96 217.094 11.0987 217.276 11.28C217.457 11.4613 217.548 11.68 217.548 11.936C217.548 12.1707 217.468 12.3787 217.308 12.56C217.158 12.7307 216.945 12.8587 216.668 12.944C216.39 13.0293 216.065 13.072 215.692 13.072H214.252V14.176H215.788C216.417 14.176 216.908 14.2827 217.26 14.496C217.612 14.7093 217.788 15.0133 217.788 15.408C217.788 15.6853 217.692 15.9307 217.5 16.144C217.308 16.3467 217.03 16.5067 216.668 16.624C216.316 16.7413 215.894 16.8 215.404 16.8C214.87 16.8 214.342 16.7307 213.82 16.592C213.297 16.4427 212.833 16.24 212.428 15.984L211.964 17.152C212.444 17.4613 212.988 17.7013 213.596 17.872C214.214 18.032 214.844 18.112 215.484 18.112ZM228.9 18.128C228.11 18.128 227.342 18.0053 226.596 17.76C225.86 17.5147 225.257 17.184 224.788 16.768L225.524 15.504C225.897 15.856 226.382 16.144 226.98 16.368C227.577 16.592 228.212 16.704 228.884 16.704C229.737 16.704 230.393 16.5227 230.852 16.16C231.31 15.7973 231.54 15.312 231.54 14.704C231.54 14.288 231.438 13.9253 231.236 13.616C231.033 13.3067 230.681 13.072 230.18 12.912C229.689 12.7413 229.012 12.656 228.148 12.656H225.604L226.196 6.8H232.516V8.192H226.788L227.62 7.408L227.156 12.032L226.324 11.264H228.484C229.604 11.264 230.505 11.408 231.188 11.696C231.87 11.984 232.366 12.384 232.676 12.896C232.985 13.3973 233.14 13.9787 233.14 14.64C233.14 15.28 232.985 15.8667 232.676 16.4C232.366 16.9227 231.897 17.344 231.268 17.664C230.649 17.9733 229.86 18.128 228.9 18.128Z" fill="#3C3C3C"/>
</svg>
