<svg width="284" height="128" viewBox="0 0 284 128" fill="none" xmlns="http://www.w3.org/2000/svg">
<g filter="url(#filter0_d_5_66)">
<rect x="30.0323" y="20.2194" width="223.045" height="67.6903" rx="33.8452" fill="#D82943"/>
</g>
<rect x="30.0323" y="18" width="223.045" height="67.6903" rx="33.8452" fill="url(#paint0_linear_5_66)"/>
<path d="M93.918 56.704V47.776H89.598L89.544 49.612C89.508 50.392 89.454 51.13 89.382 51.826C89.322 52.522 89.226 53.158 89.094 53.734C88.962 54.298 88.788 54.778 88.572 55.174C88.368 55.57 88.11 55.852 87.798 56.02L84.684 55.624C85.116 55.636 85.47 55.486 85.746 55.174C86.034 54.862 86.262 54.424 86.43 53.86C86.598 53.284 86.718 52.612 86.79 51.844C86.874 51.076 86.934 50.242 86.97 49.342L87.114 45.4H96.798V56.704H93.918ZM84.27 60.61L84.288 55.624H98.562V60.61H95.862V58H86.97V60.61H84.27ZM99.1733 58L104.789 45.4H107.669L113.303 58H110.243L105.635 46.876H106.787L102.161 58H99.1733ZM101.981 55.3L102.755 53.086H109.235L110.027 55.3H101.981ZM115.171 58.198C114.955 58.198 114.727 58.18 114.487 58.144C114.259 58.108 114.007 58.06 113.731 58L113.911 55.534C114.079 55.582 114.253 55.606 114.433 55.606C114.925 55.606 115.309 55.408 115.585 55.012C115.861 54.604 116.059 54.022 116.179 53.266C116.299 52.51 116.377 51.592 116.413 50.512L116.593 45.4H126.277V58H123.397V47.11L124.063 47.776H118.501L119.095 47.074L118.987 50.404C118.951 51.64 118.867 52.738 118.735 53.698C118.603 54.658 118.399 55.474 118.123 56.146C117.847 56.818 117.469 57.328 116.989 57.676C116.509 58.024 115.903 58.198 115.171 58.198ZM132.105 50.476H138.171V52.744H132.105V50.476ZM132.321 55.66H139.179V58H129.423V45.4H138.945V47.74H132.321V55.66ZM144.217 50.476H150.283V52.744H144.217V50.476ZM144.433 55.66H151.291V58H141.535V45.4H151.057V47.74H144.433V55.66Z" fill="white"/>
<line x1="167.367" y1="57.5244" x2="176.245" y2="51.976" stroke="white"/>
<line x1="178.464" y1="57.5244" x2="187.342" y2="51.976" stroke="#DEDEDE"/>
<line x1="189.561" y1="57.5244" x2="198.438" y2="51.976" stroke="#BABABA"/>
<line y1="-0.5" x2="10.4687" y2="-0.5" transform="matrix(0.847998 0.529999 0.529999 -0.847998 167.632 45.7419)" stroke="white"/>
<line y1="-0.5" x2="10.4687" y2="-0.5" transform="matrix(0.847998 0.529999 0.529999 -0.847998 178.729 45.7419)" stroke="#DEDEDE"/>
<line y1="-0.5" x2="10.4687" y2="-0.5" transform="matrix(0.847998 0.529999 0.529999 -0.847998 189.826 45.7419)" stroke="#BABABA"/>
<defs>
<filter id="filter0_d_5_66" x="0.0323486" y="0.21936" width="283.045" height="127.69" filterUnits="userSpaceOnUse" color-interpolation-filters="sRGB">
<feFlood flood-opacity="0" result="BackgroundImageFix"/>
<feColorMatrix in="SourceAlpha" type="matrix" values="0 0 0 0 0 0 0 0 0 0 0 0 0 0 0 0 0 0 127 0" result="hardAlpha"/>
<feOffset dy="10"/>
<feGaussianBlur stdDeviation="15"/>
<feComposite in2="hardAlpha" operator="out"/>
<feColorMatrix type="matrix" values="0 0 0 0 1 0 0 0 0 0.0745098 0 0 0 0 0.211765 0 0 0 0.38 0"/>
<feBlend mode="normal" in2="BackgroundImageFix" result="effect1_dropShadow_5_66"/>
<feBlend mode="normal" in="SourceGraphic" in2="effect1_dropShadow_5_66" result="shape"/>
</filter>
<linearGradient id="paint0_linear_5_66" x1="141.555" y1="18" x2="141.555" y2="85.6903" gradientUnits="userSpaceOnUse">
<stop stop-color="#FF3452"/>
<stop offset="1" stop-color="#FF0A2E"/>
</linearGradient>
</defs>
</svg>
