<svg width="202" height="68" viewBox="0 0 202 68" fill="none" xmlns="http://www.w3.org/2000/svg">
<rect width="201.961" height="67.6903" rx="33.8452" fill="#C4C4C4"/>
<path d="M74.998 28.4H76.798V41H74.998V28.4ZM67.762 41H65.962V28.4H67.762V41ZM75.16 35.384H67.582V33.818H75.16V35.384ZM78.9816 41L84.6876 28.4H86.4696L92.1936 41H90.3036L85.2096 29.408H85.9296L80.8356 41H78.9816ZM81.4116 37.85L81.8976 36.41H88.9896L89.5116 37.85H81.4116ZM92.9823 39.632L93.6123 38.3C94.1643 38.732 94.7703 39.056 95.4303 39.272C96.1023 39.488 96.7683 39.602 97.4283 39.614C98.0883 39.614 98.6943 39.524 99.2463 39.344C99.8103 39.164 100.26 38.894 100.596 38.534C100.932 38.174 101.1 37.73 101.1 37.202C101.1 36.554 100.836 36.062 100.308 35.726C99.7923 35.39 99.0723 35.222 98.1483 35.222H95.3403V33.764H98.0223C98.8263 33.764 99.4503 33.602 99.8943 33.278C100.35 32.942 100.578 32.48 100.578 31.892C100.578 31.448 100.44 31.076 100.164 30.776C99.9003 30.464 99.5343 30.23 99.0663 30.074C98.6103 29.918 98.0883 29.84 97.5003 29.84C96.9243 29.828 96.3303 29.906 95.7183 30.074C95.1063 30.23 94.5183 30.482 93.9543 30.83L93.3783 29.354C94.1463 28.922 94.9443 28.622 95.7723 28.454C96.6123 28.274 97.4223 28.22 98.2023 28.292C98.9823 28.352 99.6843 28.532 100.308 28.832C100.944 29.12 101.448 29.504 101.82 29.984C102.204 30.452 102.396 31.016 102.396 31.676C102.396 32.276 102.24 32.81 101.928 33.278C101.616 33.734 101.184 34.088 100.632 34.34C100.08 34.58 99.4383 34.7 98.7063 34.7L98.7783 34.214C99.6183 34.214 100.344 34.352 100.956 34.628C101.58 34.892 102.06 35.27 102.396 35.762C102.744 36.254 102.918 36.824 102.918 37.472C102.918 38.084 102.762 38.63 102.45 39.11C102.138 39.578 101.712 39.974 101.172 40.298C100.644 40.61 100.038 40.838 99.3543 40.982C98.6823 41.126 97.9743 41.174 97.2303 41.126C96.4863 41.078 95.7483 40.934 95.0163 40.694C94.2963 40.454 93.6183 40.1 92.9823 39.632ZM104.171 41L109.877 28.4H111.659L117.383 41H115.493L110.399 29.408H111.119L106.025 41H104.171ZM106.601 37.85L107.087 36.41H114.179L114.701 37.85H106.601ZM127.928 40.154V29.966H122.402L122.312 32.612C122.276 33.5 122.216 34.352 122.132 35.168C122.06 35.984 121.952 36.722 121.808 37.382C121.664 38.03 121.46 38.564 121.196 38.984C120.944 39.404 120.62 39.662 120.224 39.758L118.28 39.434C118.748 39.47 119.132 39.314 119.432 38.966C119.744 38.606 119.984 38.108 120.152 37.472C120.332 36.824 120.464 36.074 120.548 35.222C120.632 34.358 120.692 33.434 120.728 32.45L120.854 28.4H129.71V40.154H127.928ZM117.83 43.754L117.848 39.434H131.564V43.754H129.89V41H119.522L119.504 43.754H117.83Z" fill="white"/>
</svg>
