<svg width="56" height="37" viewBox="0 0 56 37" fill="none" xmlns="http://www.w3.org/2000/svg">
<path d="M37.4356 36.5C34.8236 34.5228 32.6569 32.0978 31.1116 28.8675C29.3703 25.2278 28.4345 20.6003 28.501 14.5H7.49355C7.43429 21.2164 8.53545 26.7235 10.0647 30.5601C10.8488 32.5269 11.7376 34.0355 12.624 35.0429C13.5222 36.0638 14.353 36.5 15.021 36.5H15.0418H15.063H15.0846H15.1066H15.129H15.1517H15.1748H15.1983H15.2222H15.2464H15.271H15.296H15.3214H15.3471H15.3731H15.3996H15.4264H15.4535H15.4811H15.5089H15.5372H15.5657H15.5947H15.6239H15.6536H15.6835H15.7139H15.7445H15.7755H15.8069H15.8385H15.8706H15.9029H15.9356H15.9686H16.0019H16.0356H16.0696H16.1039H16.1385H16.1735H16.2088H16.2444H16.2803H16.3165H16.3531H16.3899H16.4271H16.4645H16.5023H16.5404H16.5788H16.6174H16.6564H16.6957H16.7353H16.7751H16.8153H16.8557H16.8965H16.9375H16.9788H17.0204H17.0623H17.1044H17.1469H17.1896H17.2326H17.2758H17.3194H17.3632H17.4073H17.4516H17.4962H17.5411H17.5862H17.6316H17.6773H17.7232H17.7693H17.8158H17.8624H17.9094H17.9565H18.0039H18.0516H18.0995H18.1477H18.1961H18.2447H18.2936H18.3427H18.392H18.4416H18.4914H18.5414H18.5917H18.6421H18.6928H18.7438H18.7949H18.8463H18.8979H18.9497H19.0017H19.0539H19.1063H19.159H19.2118H19.2649H19.3182H19.3716H19.4253H19.4791H19.5332H19.5875H19.6419H19.6966H19.7514H19.8064H19.8616H19.917H19.9726H20.0283H20.0843H20.1404H20.1967H20.2532H20.3098H20.3666H20.4236H20.4808H20.5381H20.5956H20.6532H20.711H20.769H20.8271H20.8854H20.9439H21.0025H21.0612H21.1201H21.1791H21.2383H21.2977H21.3572H21.4168H21.4766H21.5365H21.5965H21.6567H21.717H21.7774H21.838H21.8987H21.9595H22.0205H22.0816H22.1428H22.2041H22.2655H22.3271H22.3887H22.4505H22.5124H22.5744H22.6365H22.6987H22.7611H22.8235H22.886H22.9487H23.0114H23.0742H23.1371H23.2001H23.2633H23.3265H23.3897H23.4531H23.5166H23.5801H23.6437H23.7074H23.7712H23.8351H23.899H23.963H24.0271H24.0912H24.1554H24.2197H24.2841H24.3485H24.4129H24.4775H24.5421H24.6067H24.6714H24.7362H24.801H24.8658H24.9307H24.9957H25.0607H25.1257H25.1908H25.2559H25.3211H25.3863H25.4515H25.5168H25.5821H25.6474H25.7128H25.7781H25.8435H25.909H25.9744H26.0399H26.1054H26.1709H26.2364H26.3019H26.3675H26.433H26.4986H26.5642H26.6297H26.6953H26.7609H26.8265H26.892H26.9576H27.0232H27.0888H27.1543H27.2198H27.2854H27.3509H27.4164H27.4819H27.5473H27.6128H27.6782H27.7436H27.809H27.8743H27.9397H28.0049H28.0702H28.1354H28.2006H28.2658H28.3309H28.396H28.461H28.526H28.5909H28.6558H28.7207H28.7855H28.8502H28.9149H28.9795H29.0441H29.1086H29.1731H29.2375H29.3018H29.3661H29.4303H29.4944H29.5585H29.6225H29.6864H29.7502H29.814H29.8777H29.9413H30.0048H30.0682H30.1316H30.1948H30.258H30.3211H30.3841H30.447H30.5098H30.5725H30.6351H30.6976H30.76H30.8223H30.8845H30.9466H31.0086H31.0705H31.1322H31.1939H31.2554H31.3168H31.3781H31.4393H31.5004H31.5613H31.6221H31.6828H31.7433H31.8037H31.864H31.9241H31.9842H32.044H32.1038H32.1634H32.2228H32.2821H32.3413H32.4003H32.4592H32.5179H32.5765H32.6349H32.6931H32.7512H32.8092H32.8669H32.9246H32.982H33.0393H33.0964H33.1534H33.2101H33.2667H33.3232H33.3794H33.4355H33.4914H33.5471H33.6027H33.658H33.7132H33.7682H33.823H33.8776H33.932H33.9862H34.0402H34.094H34.1477H34.2011H34.2543H34.3073H34.3601H34.4127H34.4651H34.5173H34.5693H34.621H34.6726H34.7239H34.775H34.8259H34.8765H34.927H34.9772H35.0271H35.0769H35.1264H35.1757H35.2248H35.2736H35.3222H35.3705H35.4186H35.4665H35.5141H35.5614H35.6086H35.6554H35.7021H35.7484H35.7945H35.8404H35.886H35.9313H35.9764H36.0212H36.0658H36.1101H36.1541H36.1978H36.2413H36.2845H36.3275H36.3701H36.4125H36.4546H36.4964H36.5379H36.5792H36.6202H36.6608H36.7012H36.7413H36.7811H36.8206H36.8599H36.8988H36.9374H36.9757H37.0137H37.0514H37.0888H37.1259H37.1627H37.1992H37.2353H37.2712H37.3067H37.3419H37.3768H37.4114H37.4356Z" fill="#9C9C9C" stroke="white"/>
<path d="M3.60624 14.75L17.5 1.68631L31.3938 14.75H3.60624Z" fill="#9C9C9C" stroke="white"/>
<rect x="8" y="13" width="19" height="3" fill="#9C9C9C"/>
<path d="M13.8889 20.1312L20.8657 19.9055C20.8379 22.8308 21.1191 24.3745 22.1111 26.8688L15.1147 27.0952C14.2987 25.0978 14.031 23.4792 13.8889 20.1312Z" fill="white"/>
<path d="M17.5 16.5C17.2331 19.9972 17.154 23.51 19 28.5" stroke="#9C9C9C"/>
<line x1="11.9715" y1="24.1277" x2="22.9536" y2="23.5008" stroke="#9C9C9C"/>
<path d="M20.0206 14.5L36 0.661439L51.9794 14.5H20.0206Z" fill="#FF6800" stroke="white"/>
<path d="M18.7574 36.5H18.7459C19.104 36.2427 19.4552 35.9409 19.797 35.6006C20.9898 34.4132 22.1182 32.7105 23.0954 30.6183C25.0019 26.5364 26.3664 20.9005 26.4844 14.5H46.4798C46.5567 21.237 45.8213 26.7535 44.5971 30.5933C43.9694 32.562 43.2223 34.0612 42.4134 35.0582C41.6047 36.0549 40.7788 36.5 39.9788 36.5H39.955H39.9308H39.906H39.8808H39.8552H39.8291H39.8026H39.7755H39.7481H39.7202H39.6918H39.663H39.6338H39.6041H39.574H39.5435H39.5125H39.4811H39.4493H39.417H39.3843H39.3512H39.3177H39.2837H39.2494H39.2146H39.1794H39.1438H39.1078H39.0714H39.0346H38.9974H38.9598H38.9218H38.8835H38.8447H38.8055H38.766H38.726H38.6857H38.645H38.604H38.5625H38.5207H38.4785H38.4359H38.393H38.3497H38.3061H38.2621H38.2177H38.173H38.1279H38.0825H38.0367H37.9906H37.9441H37.8973H37.8502H37.8027H37.7549H37.7067H37.6582H37.6094H37.5603H37.5108H37.461H37.4109H37.3605H37.3098H37.2587H37.2074H37.1557H37.1037H37.0514H36.9988H36.946H36.8928H36.8393H36.7855H36.7315H36.6771H36.6225H36.5676H36.5124H36.4569H36.4011H36.3451H36.2888H36.2322H36.1753H36.1182H36.0608H36.0032H35.9453H35.8871H35.8287H35.77H35.7111H35.6519H35.5925H35.5328H35.4729H35.4128H35.3524H35.2918H35.2309H35.1698H35.1085H35.047H34.9852H34.9232H34.861H34.7986H34.7359H34.6731H34.61H34.5467H34.4832H34.4195H34.3556H34.2916H34.2273H34.1628H34.0981H34.0332H33.9681H33.9029H33.8375H33.7718H33.706H33.64H33.5739H33.5076H33.4411H33.3744H33.3075H33.2405H33.1734H33.106H33.0386H32.9709H32.9031H32.8352H32.7671H32.6988H32.6304H32.5619H32.4932H32.4244H32.3554H32.2864H32.2171H32.1478H32.0783H32.0087H31.939H31.8691H31.7992H31.7291H31.6589H31.5886H31.5182H31.4476H31.377H31.3063H31.2354H31.1645H31.0935H31.0223H30.9511H30.8798H30.8084H30.7369H30.6654H30.5937H30.522H30.4502H30.3783H30.3064H30.2343H30.1622H30.0901H30.0179H29.9456H29.8733H29.8009H29.7284H29.6559H29.5833H29.5107H29.4381H29.3654H29.2927H29.2199H29.1471H29.0742H29.0013H28.9284H28.8555H28.7825H28.7095H28.6365H28.5635H28.4905H28.4174H28.3443H28.2712H28.1981H28.125H28.0519H27.9788H27.9057H27.8326H27.7595H27.6864H27.6134H27.5403H27.4672H27.3942H27.3212H27.2482H27.1752H27.1022H27.0293H26.9564H26.8835H26.8107H26.7379H26.6651H26.5924H26.5197H26.4471H26.3745H26.302H26.2295H26.157H26.0847H26.0123H25.9401H25.8679H25.7958H25.7237H25.6517H25.5798H25.5079H25.4361H25.3644H25.2928H25.2213H25.1498H25.0784H25.0072H24.936H24.8649H24.7939H24.723H24.6522H24.5815H24.5109H24.4404H24.37H24.2997H24.2296H24.1595H24.0896H24.0198H23.9501H23.8805H23.8111H23.7418H23.6726H23.6036H23.5347H23.4659H23.3973H23.3288H23.2604H23.1922H23.1242H23.0563H22.9885H22.9209H22.8535H22.7862H22.7191H22.6521H22.5854H22.5187H22.4523H22.386H22.3199H22.254H22.1883H22.1227H22.0573H21.9921H21.9271H21.8623H21.7977H21.7333H21.669H21.605H21.5412H21.4775H21.4141H21.3509H21.2879H21.2251H21.1625H21.1002H21.038H20.9761H20.9144H20.853H20.7917H20.7307H20.6699H20.6094H20.5491H20.489H20.4292H20.3696H20.3102H20.2512H20.1923H20.1337H20.0754H20.0173H19.9595H19.9019H19.8446H19.7876H19.7308H19.6743H19.6181H19.5622H19.5065H19.4511H19.396H19.3412H19.2866H19.2324H19.1784H19.1247H19.0713H19.0183H18.9655H18.913H18.8608H18.8089H18.7574Z" fill="#FF6800" stroke="white"/>
<path d="M40 20H33C32.7694 23.705 32.5488 25.2812 32 27H39C39.5694 25.8187 39.7438 24.2422 40 20Z" fill="white"/>
<rect x="27" y="13" width="19" height="3" fill="#FF6800"/>
<path d="M36.5 19C36.4569 22.553 36.5 25 35.4966 28.0553" stroke="#FF6800"/>
<line x1="32" y1="23.5" x2="41" y2="23.5" stroke="#FF6800"/>
</svg>
