<svg width="109" height="28" viewBox="0 0 109 28" fill="none" xmlns="http://www.w3.org/2000/svg">
<rect width="108.5" height="28" rx="14" fill="#14DE1C"/>
<path d="M31.7294 21.144C30.7694 21.144 29.8754 20.982 29.0474 20.658C28.2314 20.334 27.5234 19.884 26.9234 19.308C26.3234 18.72 25.8554 18.036 25.5194 17.256C25.1834 16.476 25.0154 15.624 25.0154 14.7C25.0154 13.776 25.1834 12.924 25.5194 12.144C25.8554 11.364 26.3234 10.686 26.9234 10.11C27.5234 9.522 28.2314 9.066 29.0474 8.742C29.8634 8.418 30.7574 8.256 31.7294 8.256C32.6894 8.256 33.5714 8.418 34.3754 8.742C35.1914 9.054 35.8994 9.504 36.4994 10.092C37.1114 10.668 37.5794 11.346 37.9034 12.126C38.2394 12.906 38.4074 13.764 38.4074 14.7C38.4074 15.636 38.2394 16.494 37.9034 17.274C37.5794 18.054 37.1114 18.738 36.4994 19.326C35.8994 19.902 35.1914 20.352 34.3754 20.676C33.5714 20.988 32.6894 21.144 31.7294 21.144ZM31.7294 19.542C32.4254 19.542 33.0674 19.422 33.6554 19.182C34.2554 18.942 34.7714 18.606 35.2034 18.174C35.6474 17.73 35.9894 17.214 36.2294 16.626C36.4814 16.038 36.6074 15.396 36.6074 14.7C36.6074 14.004 36.4814 13.362 36.2294 12.774C35.9894 12.186 35.6474 11.676 35.2034 11.244C34.7714 10.8 34.2554 10.458 33.6554 10.218C33.0674 9.978 32.4254 9.858 31.7294 9.858C31.0214 9.858 30.3674 9.978 29.7674 10.218C29.1794 10.458 28.6634 10.8 28.2194 11.244C27.7754 11.676 27.4274 12.186 27.1754 12.774C26.9354 13.362 26.8154 14.004 26.8154 14.7C26.8154 15.396 26.9354 16.038 27.1754 16.626C27.4274 17.214 27.7754 17.73 28.2194 18.174C28.6634 18.606 29.1794 18.942 29.7674 19.182C30.3674 19.422 31.0214 19.542 31.7294 19.542ZM46.0006 11.37C46.7806 11.37 47.4646 11.52 48.0526 11.82C48.6526 12.12 49.1206 12.576 49.4566 13.188C49.7926 13.8 49.9606 14.574 49.9606 15.51V21H48.2326V15.708C48.2326 14.784 48.0046 14.088 47.5486 13.62C47.1046 13.152 46.4746 12.918 45.6586 12.918C45.0466 12.918 44.5126 13.038 44.0566 13.278C43.6006 13.518 43.2466 13.872 42.9946 14.34C42.7546 14.808 42.6346 15.39 42.6346 16.086V21H40.9066V11.46H42.5626V14.034L42.2926 13.35C42.6046 12.726 43.0846 12.24 43.7326 11.892C44.3806 11.544 45.1366 11.37 46.0006 11.37ZM53.1585 21V7.644H54.8865V21H53.1585ZM58.1859 21V11.46H59.9139V21H58.1859ZM59.0499 9.624C58.7139 9.624 58.4319 9.516 58.2039 9.3C57.9879 9.084 57.8799 8.82 57.8799 8.508C57.8799 8.184 57.9879 7.914 58.2039 7.698C58.4319 7.482 58.7139 7.374 59.0499 7.374C59.3859 7.374 59.6619 7.482 59.8779 7.698C60.1059 7.902 60.2199 8.16 60.2199 8.472C60.2199 8.796 60.1119 9.072 59.8959 9.3C59.6799 9.516 59.3979 9.624 59.0499 9.624ZM68.3072 11.37C69.0872 11.37 69.7712 11.52 70.3592 11.82C70.9592 12.12 71.4272 12.576 71.7632 13.188C72.0992 13.8 72.2672 14.574 72.2672 15.51V21H70.5392V15.708C70.5392 14.784 70.3112 14.088 69.8552 13.62C69.4112 13.152 68.7812 12.918 67.9652 12.918C67.3532 12.918 66.8192 13.038 66.3632 13.278C65.9072 13.518 65.5532 13.872 65.3012 14.34C65.0612 14.808 64.9412 15.39 64.9412 16.086V21H63.2132V11.46H64.8692V14.034L64.5992 13.35C64.9112 12.726 65.3912 12.24 66.0392 11.892C66.6872 11.544 67.4432 11.37 68.3072 11.37ZM79.7131 21.108C78.6931 21.108 77.7931 20.898 77.0131 20.478C76.2451 20.058 75.6451 19.482 75.2131 18.75C74.7931 18.018 74.5831 17.178 74.5831 16.23C74.5831 15.282 74.7871 14.442 75.1951 13.71C75.6151 12.978 76.1851 12.408 76.9051 12C77.6371 11.58 78.4591 11.37 79.3711 11.37C80.2951 11.37 81.1111 11.574 81.8191 11.982C82.5271 12.39 83.0791 12.966 83.4751 13.71C83.8831 14.442 84.0871 15.3 84.0871 16.284C84.0871 16.356 84.0811 16.44 84.0691 16.536C84.0691 16.632 84.0631 16.722 84.0511 16.806H75.9331V15.564H83.1511L82.4491 15.996C82.4611 15.384 82.3351 14.838 82.0711 14.358C81.8071 13.878 81.4411 13.506 80.9731 13.242C80.5171 12.966 79.9831 12.828 79.3711 12.828C78.7711 12.828 78.2371 12.966 77.7691 13.242C77.3011 13.506 76.9351 13.884 76.6711 14.376C76.4071 14.856 76.2751 15.408 76.2751 16.032V16.32C76.2751 16.956 76.4191 17.526 76.7071 18.03C77.0071 18.522 77.4211 18.906 77.9491 19.182C78.4771 19.458 79.0831 19.596 79.7671 19.596C80.3311 19.596 80.8411 19.5 81.2971 19.308C81.7651 19.116 82.1731 18.828 82.5211 18.444L83.4751 19.56C83.0431 20.064 82.5031 20.448 81.8551 20.712C81.2191 20.976 80.5051 21.108 79.7131 21.108Z" fill="white"/>
</svg>
